<?xml version="1.0" encoding="utf-8"?>
<svg version="1.1" xmlns:xlink="http://www.w3.org/1999/xlink" width="50px" height="50px" xmlns="http://www.w3.org/2000/svg">
  <g transform="matrix(1 0 0 1 -176 -1773 )">
    <path d="M 25.4231770833333 4.58096590909091  C 25.3146701388889 4.55729166666666  25.1736111111111 4.54545454545455  25 4.54545454545455  C 23.8498263888889 4.54545454545455  22.8678385416667 4.98934659090909  22.0540364583333 5.87713068181818  C 21.240234375 6.76491477272727  20.8333333333333 7.83617424242424  20.8333333333333 9.09090909090909  L 20.8333333333333 13.6363636363636  L 19.7916666666667 13.6363636363636  L 19.7916666666667 10.3338068181818  C 19.7916666666667 9.19744318181818  19.4444444444444 8.2327178030303  18.75 7.43963068181818  C 18.0555555555556 6.64654356060606  17.1875 6.25  16.1458333333333 6.25  C 15.1475694444444 6.25  14.2903645833333 6.640625  13.57421875 7.421875  C 12.8580729166667 8.203125  12.5 9.13825757575757  13 10.2272727272727  L 13 25.4616477272727  L 11.4583333333333 24.3963068181818  L 11.4583333333333 18.2883522727273  C 11.4583333333333 17.1519886363636  11.1111111111111 16.1872632575758  10.4166666666667 15.3941761363636  C 9.72222222222222 14.6010890151515  8.85416666666667 14.2045454545455  7.8125 14.2045454545455  C 6.81423611111111 14.2045454545455  5.95703125 14.5951704545455  5.24088541666667 15.3764204545455  C 4.52473958333333 16.1576704545455  4.16666666666667 17.092803030303  4.16666666666667 18.1818181818182  L 4.16666666666667 26.1363636363636  C 4.16666666666667 27.249053030303  4.54644097222222 28.219696969697  5.30598958333333 29.0482954545455  L 15.3971354166667 39.5596590909091  C 16.2434895833333 40.4829545454545  16.6666666666667 41.6903409090909  16.6666666666667 43.1818181818182  C 16.6666666666667 43.7973484848485  16.8728298611111 44.3300189393939  17.28515625 44.7798295454545  C 17.6974826388889 45.2296401515152  18.1857638888889 45.4545454545455  18.75 45  L 39.5833333333333 45  C 40.1475694444445 45.4545454545455  40.6358506944445 45.2296401515152  41.0481770833333 44.7798295454545  C 41.4605034722222 44.3300189393939  41.6666666666667 43.7973484848485  41.6666666666667 43.1818181818182  L 41.6666666666667 42.2940340909091  C 41.6666666666667 41.3233901515152  41.7751736111111 40.4119318181818  41.9921875 39.5596590909091  L 45.5078125 24.0767045454545  C 45.7248263888889 23.2244318181818  45.8333333333333 22.3129734848485  45.8333333333333 21.3423295454545  L 45.8333333333333 12.6065340909091  C 45.8333333333333 11.4701704545455  45.4861111111111 10.5054450757576  44.7916666666667 9.71235795454545  C 44.0972222222222 8.91927083333333  43.2291666666667 8.52272727272727  42.1875 8.52272727272727  C 41.1892361111111 8.52272727272727  40.33203125 8.91335227272727  39.6158854166667 9.69460227272727  C 38.8997395833333 10.4758522727273  38.5416666666667 11.4109848484848  38.5416666666667 12.5  L 38.5416666666667 13.6363636363636  L 37.5 13.6363636363636  L 37.5 9.19744318181818  C 37.5 8.25047348484848  37.2287326388889 7.39228219696969  36.6861979166667 6.62286931818182  C 36.1436631944445 5.85345643939394  35.44921875 5.37405303030303  34.6028645833333 5.18465909090909  C 34.2990451388889 5.1373106060606  34.0494791666667 5.11363636363637  33.8541666666667 5.11363636363637  C 32.8559027777778 5.11363636363637  31.9986979166667 5.50426136363637  31.2825520833333 6.28551136363637  C 30.56640625 7.06676136363637  30.2083333333333 8.00189393939394  30.2083333333333 9.09090909090909  L 30.2083333333333 13.6363636363636  L 29.1666666666667 13.6363636363636  L 29.1666666666667 9.30397727272727  C 29.1666666666667 8.09659090909091  28.8140190972222 7.03716856060606  28.1087239583333 6.12571022727273  C 27.4034288194444 5.21425189393939  26.5082465277778 4.69933712121212  25.4231770833333 4.58096590909091  Z M 19.3359375 2.45028409090909  C 20.8984375 0.816761363636365  22.7864583333333 0  25 0  C 26.8229166666667 0  28.4396701388889 0.591856060606055  29.8502604166667 1.77556818181818  C 31.0872395833333 0.970643939393939  32.421875 0.568181818181818  33.8541666666667 0.568181818181818  C 35.1345486111111 0.568181818181818  36.3389756944445 0.887784090909088  37.4674479166667 1.52698863636364  C 38.5959201388889 2.16619318181818  39.5290798611111 3.06581439393939  40.2669270833333 4.22585227272727  C 40.8528645833333 4.06013257575757  41.4930555555556 3.97727272727273  42.1875 3.97727272727273  C 44.3576388888889 3.97727272727273  46.2022569444445 4.82362689393939  47.7213541666667 6.51633522727273  C 49.2404513888889 8.20904356060606  50 10.2391098484848  50 12.6065340909091  L 50 21.3423295454545  C 50 22.5497159090909  49.8589409722222 23.828125  49.5768229166667 25.1775568181818  L 46.0286458333333 40.6605113636364  C 45.8984375 41.2286931818182  45.8333333333333 42.0691287878788  45.8333333333333 43.1818181818182  C 45.8333333333333 45.0757575757576  45.2256944444445 46.6856060606061  44.0104166666667 48.0113636363636  C 42.7951388888889 49.3371212121212  41.3194444444445 50  39.5833333333333 50  L 18.75 50  C 16.9270833333333 50  15.4296875 49.3075284090909  14.2578125 47.9225852272727  C 13.0859375 46.5376420454545  12.5 44.8508522727273  12.5 42.8622159090909  L 2.47395833333333 32.3508522727273  C 0.824652777777778 30.6226325757576  0 28.5511363636364  0 26.1363636363636  L 0 18.1818181818182  C 0 15.8380681818182  0.764973958333333 13.8316761363636  2.294921875 12.1626420454545  C 3.82486979166667 10.4936079545455  5.6640625 9.65909090909091  7.8125 9.65909090909091  C 8.05121527777778 9.65909090909091  8.22482638888889 9.67092803030303  8.33333333333333 9.69460227272727  C 8.46354166666667 7.44554924242424  9.28276909722222 5.55160984848485  10.791015625 4.01278409090909  C 12.2992621527778 2.47395833333333  14.0842013888889 1.70454545454545  16.1458333333333 1.70454545454545  C 17.2743055555556 1.70454545454545  18.3376736111111 1.953125  19.3359375 2.45028409090909  Z " fill-rule="nonzero" fill="#ffffff" stroke="none" transform="matrix(1 0 0 1 176 1773 )" />
  </g>
</svg>