<?xml version="1.0" encoding="utf-8"?>
<svg version="1.1" xmlns:xlink="http://www.w3.org/1999/xlink" width="50px" height="50px" xmlns="http://www.w3.org/2000/svg">
  <g transform="matrix(1 0 0 1 -176 -1851 )">
    <path d="M 30.0260416666667 50  L 11.953125 50  C 10.6163194444444 50  9.42274305555556 49.5582217261905  8.37239583333333 48.6746651785714  C 7.32204861111111 47.7911086309524  6.63194444444444 46.6517857142857  6.30208333333333 45.2566964285714  L 3.671875 34.0680803571429  C 3.44618055555556 33.0078125  3.33333333333333 32.0033482142857  3.33333333333333 31.0546875  C 3.33333333333333 30.2176339285714  3.28993055555556 29.594494047619  3.203125 29.1852678571429  L 0.182291666666667 15.8761160714286  C 0.0607638888888889 15.3738839285714  0 14.84375  0 14.2857142857143  C 0 12.5558035714286  0.538194444444444 11.0584077380952  1.61458333333333 9.79352678571428  C 2.69097222222222 8.52864583333333  4.03645833333333 7.8031994047619  5.65104166666667 7.6171875  C 5.94618055555556 6.03608630952381  6.66232638888889 4.74330357142857  7.79947916666667 3.73883928571428  C 8.93663194444444 2.734375  10.2604166666667 2.23214285714286  11.7708333333333 2.23214285714286  C 13.2118055555556 2.23214285714286  14.4965277777778 2.71112351190476  15.625 3.66908482142857  C 16.7534722222222 4.62704613095238  17.4913194444444 5.859375  17.8385416666667 7.36607142857143  L 20 17.0758928571429  L 22.6822916666667 5.13392857142857  C 23.0295138888889 3.62723214285715  23.7673611111111 2.39490327380952  24.8958333333333 1.43694196428572  C 26.0243055555556 0.478980654761907  27.3090277777778 0  28.75 0  C 30.2951388888889 0  31.6449652777778 0.534784226190477  32.7994791666667 1.60435267857143  C 33.9539930555556 2.67392113095238  34.6527777777778 4.01785714285715  34.8958333333333 5.63616071428572  C 36.4930555555556 5.82217261904762  37.8125 6.55691964285715  38.8541666666667 7.84040178571428  C 39.8958333333333 9.12388392857143  40.4166666666667 10.6305803571429  40.4166666666667 12.3604910714286  C 40.4166666666667 12.8069196428571  40.3559027777778 13.3556547619048  40.234375 14.0066964285714  L 37.03125 28.2924107142857  C 37.2048611111111 28.1622023809524  37.5303819444444 27.8971354166667  38.0078125 27.4972098214286  C 38.4852430555556 27.0972842261905  38.8194444444444 26.8229166666667  39.0104166666667 26.6741071428571  C 39.2013888888889 26.5252976190476  39.5052083333333 26.3113839285714  39.921875 26.0323660714286  C 40.3385416666667 25.7533482142857  40.6944444444445 25.5626860119048  40.9895833333333 25.4603794642857  C 41.2847222222222 25.3580729166667  41.6449652777778 25.2557663690476  42.0703125 25.1534598214286  C 42.4956597222222 25.0511532738095  42.9253472222222 25  43.359375 25  C 45.1822916666667 25  46.7447916666667 25.688244047619  48.046875 27.0647321428571  C 49.3489583333333 28.4412202380952  50 30.1060267857143  50 32.0591517857143  C 50 33.2124255952381  49.7526041666667 34.3098958333333  49.2578125 35.3515625  C 48.7630208333333 36.3932291666667  48.0815972222222 37.2674851190476  47.2135416666667 37.9743303571429  L 34.0104166666667 48.5770089285714  C 32.8298611111111 49.5256696428571  31.5017361111111 50  30.0260416666667 50  Z M 30.8203125 4.52008928571428  C 30.2734375 3.88764880952381  29.5833333333333 3.57142857142857  28.75 3.57142857142857  C 28.0902777777778 3.57142857142857  27.4956597222222 3.79464285714286  26.9661458333333 4.24107142857143  C 26.4366319444444 4.6875  26.09375 5.2641369047619  25.9375 5.97098214285715  L 21.6666666666667 25  L 18.359375 25  L 14.5833333333333 8.203125  C 14.4270833333333 7.49627976190476  14.0842013888889 6.91964285714286  13.5546875 6.47321428571428  C 13.0251736111111 6.02678571428572  12.4305555555556 5.80357142857143  11.7708333333333 5.80357142857143  C 10.9375 5.80357142857143  10.2430555555556 6.11049107142857  9.6875 6.72433035714286  C 9.13194444444444 7.33816964285715  8.85416666666667 8.08221726190476  8.85416666666667 8.95647321428572  C 8.85416666666667 9.23549107142857  8.88020833333333 9.49590773809524  8.93229166666667 9.73772321428572  L 12.3697916666667 25  L 11.6927083333333 25  L 9.11458333333333 13.6160714285714  C 8.95833333333333 12.9278273809524  8.61111111111111 12.3465401785714  8.07291666666667 11.8722098214286  C 7.53472222222222 11.3978794642857  6.93576388888889 11.1607142857143  6.27604166666667 11.1607142857143  C 5.46006944444445 11.1607142857143  4.765625 11.4676339285714  4.19270833333333 12.0814732142857  C 3.61979166666667 12.6953125  3.33333333333333 13.4300595238095  3.33333333333333 14.2857142857143  C 3.33333333333333 14.5461309523809  3.359375 14.7879464285714  3.41145833333333 15.0111607142857  L 6.43229166666667 28.3482142857143  C 6.55381944444444 28.8690476190476  6.63194444444444 29.6688988095238  6.66666666666667 30.7477678571429  C 6.70138888888889 31.8266369047619  6.78819444444445 32.6450892857143  6.92708333333333 33.203125  L 9.53125 44.3917410714286  C 9.67013888888889 44.9869791666667  9.96527777777778 45.4752604166667  10.4166666666667 45.8565848214286  C 10.8680555555556 46.2379092261905  11.3802083333333 46.4285714285714  11.953125 46  L 30.0260416666667 46  C 30.7552083333333 46.4285714285714  31.4149305555556 46.1867559523809  32.0052083333333 45.703125  L 45.2083333333333 35.1283482142857  C 46.1805555555556 34.3284970238095  46.6666666666667 33.305431547619  46.6666666666667 32.0591517857143  C 46.6666666666667 31.0918898809524  46.3411458333333 30.268787202381  45.6901041666667 29.58984375  C 45.0390625 28.910900297619  44.2621527777778 28.5714285714286  43.359375 28.5714285714286  C 42.6128472222222 28.5714285714286  41.9444444444444 28.813244047619  41.3541666666667 29.296875  L 33.359375 35.7142857142857  L 33.359375 29.3805803571429  C 33.359375 29.3061755952381  33.6371527777778 28.022693452381  34.1927083333333 25.5301339285714  C 34.7482638888889 23.0375744047619  35.3385416666667 20.414806547619  35.9635416666667 17.6618303571429  C 36.5885416666667 14.9088541666667  36.9270833333333 13.4114583333333  36.9791666666667 13.1696428571429  C 37.0486111111111 12.8348214285714  37.0833333333333 12.5651041666667  37.0833333333333 12.3604910714286  C 37.0833333333333 11.4862351190476  36.8055555555556 10.7328869047619  36.25 10.1004464285714  C 35.6944444444444 9.46800595238095  35.0086805555556 9.15178571428572  34.1927083333333 9.15178571428572  C 33.515625 9.15178571428572  32.9123263888889 9.375  32.3828125 9.82142857142857  C 31.8532986111111 10.2678571428571  31.5104166666667 10.844494047619  31.3541666666667 11.5513392857143  L 28.3333333333333 25  L 27.65625 25  L 31.5625 7.58928571428572  C 31.6145833333333 7.32886904761904  31.640625 7.06845238095238  31.640625 6.80803571428572  C 31.640625 5.91517857142857  31.3671875 5.15252976190476  30.8203125 4.52008928571428  Z " fill-rule="nonzero" fill="#ffffff" stroke="none" transform="matrix(1 0 0 1 176 1851 )" />
  </g>
</svg>