<?xml version="1.0" encoding="utf-8"?>
<svg version="1.1" xmlns:xlink="http://www.w3.org/1999/xlink" width="50px" height="50px" xmlns="http://www.w3.org/2000/svg">
  <g transform="matrix(1 0 0 1 -176 -1925 )">
    <path d="M 7.71484375 41.7367788461538  C 8.12717013888889 41.3561698717949  8.33333333333333 40.9054487179487  8.33333333333333 40.3846153846154  C 8.33333333333333 39.8637820512821  8.12717013888889 39.4130608974359  7.71484375 39.0324519230769  C 7.30251736111111 38.6518429487179  6.81423611111111 38.4615384615385  6.25 38.4615384615385  C 5.68576388888889 38.4615384615385  5.19748263888889 38.6518429487179  4.78515625 39.0324519230769  C 4.37282986111111 39.4130608974359  4.16666666666667 39.8637820512821  4.16666666666667 40.3846153846154  C 4.16666666666667 40.9054487179487  4.37282986111111 41.3561698717949  4.78515625 41.7367788461538  C 5.19748263888889 42.1173878205128  5.68576388888889 42.3076923076923  6.25 42.3076923076923  C 6.81423611111111 42.3076923076923  7.30251736111111 42.1173878205128  7.71484375 41.7367788461538  Z M 45.1334635416667 25.5108173076923  C 45.6000434027778 24.5893429487179  45.8333333333333 23.7780448717949  45.8333333333333 23.0769230769231  C 45.8333333333333 22.0552884615385  45.41015625 21.1588541666667  44.5638020833333 20.3876201923077  C 43.7174479166667 19.6163862179487  42.7517361111111 19.2307692307692  41.6666666666667 20  L 30.2083333333333 20  C 30.2083333333333 18.0689102564103  30.7291666666667 16.4713541666667  31.7708333333333 14.4381009615385  C 32.8125 12.4048477564103  33.3333333333333 10.7972756410256  33.3333333333333 9.61538461538462  C 33.3333333333333 7.65224358974359  32.9861111111111 6.19991987179487  32.2916666666667 5.25841346153846  C 31.5972222222222 4.31690705128205  30.2083333333333 3.84615384615384  28.125 3.84615384615384  C 27.5607638888889 4.36698717948718  27.1484375 5.21834935897436  26.8880208333333 6.40024038461539  C 26.6276041666667 7.58213141025641  26.2966579861111 8.83914262820512  25.8951822916667 10.1712740384615  C 25.4937065972222 11.5034054487179  24.8480902777778 12.6001602564103  23.9583333333333 13.4615384615385  C 23.4809027777778 13.9222756410256  22.6453993055556 14.833733974359  21.4518229166667 16.1959134615385  C 21.3650173611111 16.2960737179487  21.1154513888889 16.5965544871795  20.703125 17.0973557692308  C 20.2907986111111 17.598157051282  19.9490017361111 18.0088141025641  19.677734375 18.3293269230769  C 19.4064670138889 18.6498397435897  19.0321180555556 19.0755208333333  18.5546875 19.6063701923077  C 18.0772569444444 20.137219551282  17.6432291666667 20.5779246794872  17.2526041666667 20.9284855769231  C 16.8619791666667 21.279046474359  16.4442274305556 21.6346153846154  15.9993489583333 21.9951923076923  C 15.5544704861111 22.3557692307692  15.1204427083333 22.6262019230769  14.697265625 22.8064903846154  C 14.2740885416667 22.9867788461538  13.8888888888889 23.0769230769231  13.5416666666667 23.0769230769231  L 13 23.0769230769231  L 13 42.3076923076923  L 13.5416666666667 42.3076923076923  C 13.8237847222222 42.3076923076923  14.1655815972222 42.3377403846154  14.5670572916667 42.3978365384615  C 14.9685329861111 42.4579326923077  15.3266059027778 42.5230368589744  15.6412760416667 42.5931490384615  C 15.9559461805556 42.6632612179487  16.3682725694444 42.7734375  16.8782552083333 42.9236778846154  C 17.3882378472222 43.0739182692308  17.7680121527778 43.1891025641026  18.017578125 43.2692307692308  C 18.2671440972222 43.349358974359  18.65234375 43.4745592948718  19.1731770833333 43.6448317307692  C 19.6940104166667 43.8151041666667  20.0086805555556 43.9202724358974  20.1171875 43.9603365384615  C 24.6961805555556 45.4226762820513  28.4071180555556 46.1538461538462  31.25 46.1538461538462  L 35.1888020833333 46.1538461538462  C 39.35546875 46.1538461538462  41.4388020833333 44.4811698717949  41.4388020833333 41.1358173076923  C 41.4388020833333 40.614983974359  41.3845486111111 40.0540865384615  41.2760416666667 39.453125  C 41.9270833333333 39.1326121794872  42.4424913194445 38.6067708333333  42.822265625 37.8756009615385  C 43.2020399305556 37.1444310897436  43.3919270833333 36.4082532051282  43.3919270833333 35.6670673076923  C 43.3919270833333 34.9258814102564  43.1966145833333 34.2347756410256  42.8059895833333 33.59375  C 43.9561631944445 32.5921474358974  44.53125 31.4002403846154  44.53125 30.0180288461538  C 44.53125 29.5172275641026  44.4227430555556 28.9613381410256  44.2057291666667 28.3503605769231  C 43.9887152777778 27.7393830128205  43.7174479166667 27.2636217948718  43.3919270833333 26.9230769230769  C 44.0863715277778 26.9030448717949  44.6668836805556 26.4322916666667  45.1334635416667 25.5108173076923  Z M 47.5260416666667 17.6682692307692  C 49.1753472222222 19.1907051282051  50 20.9835737179487  50 23.046875  C 50 24.8297275641026  49.4683159722222 26.4623397435897  48.4049479166667 27.9447115384615  C 48.6002604166667 28.6057692307692  48.6979166666667 29.296875  48.6979166666667 30.0180288461538  C 48.6979166666667 31.5604967948718  48.2855902777778 33.0028044871795  47.4609375 34.3449519230769  C 47.5260416666667 34.765625  47.55859375 35.1963141025641  47.55859375 35.6370192307692  C 47.55859375 37.6602564102564  46.9075520833333 39.443108974359  45.60546875 40.9855769230769  C 45.6271701388889 43.7700320512821  44.7048611111111 45.9685496794872  42.8385416666667 47.5811298076923  C 40.9722222222222 49.1937099358974  38.5091145833333 50  35.44921875 50  L 34.27734375 50  L 31.25 50  C 29.1666666666667 50  27.1104600694444 49.7746394230769  25.0813802083333 49.3239182692308  C 23.0523003472222 48.8731971153846  20.703125 48.2171474358974  18.0338541666667 47.3557692307692  C 15.5164930555556 46.5544871794872  14.0190972222222 46.1538461538462  13.5416666666667 46.1538461538462  L 4.16666666666667 46.1538461538462  C 3.01649305555556 46.1538461538462  2.03450520833333 45.7782451923077  1.220703125 45.0270432692308  C 0.406901041666667 44.2758413461538  0 43.369391025641  0 42.3076923076923  L 0 23.0769230769231  C 0 22.0152243589744  0.406901041666667 21.1087740384615  1.220703125 20.3575721153846  C 2.03450520833333 19.6063701923077  3.01649305555556 19.2307692307692  4.16666666666667 19.2307692307692  L 13.0859375 19.2307692307692  C 13.8671875 18.75  15.3537326388889 17.197516025641  17.5455729166667 14.5733173076923  C 18.8042534722222 13.0709134615385  19.9652777777778 11.7888621794872  21.0286458333333 10.7271634615385  C 21.5494791666667 10.2263621794872  21.9346788194444 9.36999198717948  22.1842447916667 8.15805288461539  C 22.4338107638889 6.94611378205128  22.7647569444444 5.67908653846154  23.1770833333333 4.35697115384616  C 23.5894097222222 3.03485576923077  24.2621527777778 1.953125  25.1953125 1.11177884615384  C 26.0416666666667 0.370592948717952  27.0182291666667 0  28.125 0  C 29.9479166666667 0  31.5863715277778 0.325520833333337  33.0403645833333 0.9765625  C 34.4943576388889 1.62760416666666  35.6011284722222 2.64423076923077  36.3606770833333 4.02644230769231  C 37.1202256944445 5.40865384615384  37.5 7.27163461538462  37.5 9.61538461538462  C 37.5 11.4783653846154  36.9791666666667 13.4014423076923  35.9375 15.3846153846154  L 41.6666666666667 15.3846153846154  C 43.9236111111111 15.3846153846154  45.8767361111111 16.1458333333333  47.5260416666667 17.6682692307692  Z " fill-rule="nonzero" fill="#ffffff" stroke="none" transform="matrix(1 0 0 1 176 1925 )" />
  </g>
</svg>