<?xml version="1.0" encoding="utf-8"?>
<svg version="1.1" xmlns:xlink="http://www.w3.org/1999/xlink" width="50px" height="50px" xmlns="http://www.w3.org/2000/svg">
  <g transform="matrix(1 0 0 1 -176 -1695 )">
    <path d="M 39.0462239583333 15.3041294642857  C 40.3157552083333 15.9830729166667  41.2760416666667 16.899181547619  41.9270833333333 18.0524553571429  C 43.2291666666667 18.0524553571429  44.3901909722222 18.266369047619  45.41015625 18.6941964285714  C 48.4700520833333 19.8660714285714  50 21.9680059523809  50 25  L 50 29.9386160714286  C 50 31.6871279761905  49.7504340277778 33.4170386904762  49.2513020833333 35.1283482142857  L 46.484375 44.5870535714286  C 46.0286458333333 46.1867559523809  45.0466579861111 47.4888392857143  43.5384114583333 48.4933035714286  C 42.0301649305556 49.4977678571429  40.3211805555556 50  38.4114583333333 50  L 16.6666666666667 50  C 14.3663194444444 50  12.40234375 49.3024553571429  10.7747395833333 47.9073660714286  C 9.14713541666667 46.5122767857143  8.33333333333333 44.8288690476191  9 42.8571428571429  L 9 31.6685267857143  L 0.553385416666667 14.1462053571429  C 0.184461805555556 13.3091517857143  0 12.4627976190476  0 11.6071428571429  C 0 9.63541666666666  0.813802083333333 7.95200892857143  2.44140625 6.55691964285715  C 4.06901041666667 5.16183035714286  6.03298611111111 4.46428571428572  8.33333333333333 4.46428571428572  C 10.0694444444444 4.46428571428572  11.6482204861111 4.88746279761904  13.0696614583333 5.73381696428572  C 14.4911024305556 6.58017113095238  15.5056423611111 7.69159226190476  16.11328125 9.06808035714285  L 16.6666666666667 10.2957589285714  L 16.6666666666667 7.14285714285715  C 16.6666666666667 5.17113095238095  17.48046875 3.48772321428572  19.1080729166667 2.09263392857143  C 20.7356770833333 0.697544642857145  22.6996527777778 0  25 0  C 27.3003472222222 0  29.2643229166667 0.697544642857145  30.8919270833333 2.09263392857143  C 32.51953125 3.48772321428572  33.3333333333333 5.17113095238095  33.3333333333333 7.14285714285715  L 33.3333333333333 14.4252232142857  C 33.9192708333333 14.3322172619048  34.4401041666667 14.2857142857143  34.8958333333333 14.2857142857143  C 36.3932291666667 14.2857142857143  37.7766927083333 14.6251860119048  39.0462239583333 15.3041294642857  Z M 37.4674479166667 18.7779017857143  C 36.7513020833333 18.1640625  35.8940972222222 17.8571428571429  34.8958333333333 17.8571428571429  C 34.1796875 17.8571428571429  33.5232204861111 18.0245535714286  32.9264322916667 18.359375  C 32.3296440972222 18.6941964285714  31.8793402777778 19.140625  31.5755208333333 19.6986607142857  L 29.1666666666667 24.2466517857143  L 26.85546875 28.5714285714286  L 28.6458333333333 28.5714285714286  C 29.7309027777778 28.5714285714286  30.7074652777778 28.8643973214286  31.5755208333333 29.4503348214286  C 32.4435763888889 30.0362723214286  32.9861111111111 30.7849702380952  33.203125 31.6964285714286  L 38.2161458333333 22.265625  C 38.4331597222222 21.8936011904762  38.5416666666667 21.4657738095238  38.5416666666667 20.9821428571429  C 38.5416666666667 20.1264880952381  38.18359375 19.3917410714286  37.4674479166667 18.7779017857143  Z M 44.7591145833333 22.5027901785714  C 44.0646701388889 21.9168526785714  43.1749131944445 21.6238839285714  42.08984375 21.6238839285714  C 41.6124131944445 21.6238839285714  41.1729600694445 21.6982886904762  40.771484375 21.8470982142857  C 40.3700086805556 21.9959077380952  40.0553385416667 22.1447172619048  39.8274739583333 22.2935267857143  C 39.599609375 22.4423363095238  39.3446180555556 22.7167038690476  39.0625 23.1166294642857  C 38.7803819444445 23.5165550595238  38.5959201388889 23.8002232142857  38.5091145833333 23.9676339285714  C 38.4223090277778 24.1350446428571  38.2378472222222 24.4791666666667  37.9557291666667 25  L 33.6588541666667 33.0915178571429  C 33.4418402777778 33.4635416666667  33.3333333333333 33.891369047619  33.3333333333333 34.375  C 33.3333333333333 35.2306547619048  33.69140625 35.9654017857143  34.4075520833333 36.5792410714286  C 35.1236979166667 37.1930803571429  35.9809027777778 37.5  36.9791666666667 37.5  C 37.6953125 37.5  38.3517795138889 37.3325892857143  38.9485677083333 36.9977678571429  C 39.5453559027778 36.6629464285714  39.9956597222222 36.2165178571429  40.2994791666667 35.6584821428571  L 45.5078125 25.8370535714286  C 45.703125 25.5022321428571  45.80078125 25.1488095238095  45.80078125 24.7767857142857  C 45.80078125 23.8467261904762  45.4535590277778 23.0887276785714  44.7591145833333 22.5027901785714  Z M 5.38736979166667 9.08203125  C 4.57356770833333 9.77957589285715  4.16666666666667 10.6212797619048  4.16666666666667 11.6071428571429  C 4.16666666666667 12.016369047619  4.25347222222222 12.4441964285714  4.42708333333333 12.890625  L 12.5 31.0267857142857  L 12.5 32.9520089285714  L 15.8203125 29.8549107142857  C 16.7534722222222 28.999255952381  17.9036458333333 28.5714285714286  19.2708333333333 28.5714285714286  L 25.7161458333333 28.5714285714286  L 29 22.0703125  L 29 7.14285714285715  C 29.1666666666667 6.15699404761904  28.759765625 5.31529017857143  27.9459635416667 4.61774553571428  C 27.1321614583333 3.92020089285715  26.1501736111111 3.57142857142857  25 3.57142857142857  C 23.8498263888889 3.57142857142857  22.8678385416667 3.92020089285715  22.0540364583333 4.61774553571428  C 21.240234375 5.31529017857143  20.8333333333333 6.15699404761904  21 7.14285714285715  L 21 25  L 18.75 25  L 12.2395833333333 10.3236607142857  C 11.9357638888889 9.63541666666666  11.42578125 9.08203125  10.7096354166667 8.66350446428572  C 9.99348958333333 8.24497767857143  9.20138888888889 8.03571428571428  8.33333333333333 8.03571428571428  C 7.18315972222222 8.03571428571428  6.201171875 8.38448660714285  5.38736979166667 9.08203125  Z M 16.6666666666667 46  L 38.4114583333333 46  C 39.3663194444445 46.4285714285714  40.2180989583333 46.1774553571429  40.966796875 45.6752232142857  C 41.7154947916667 45.1729910714286  42.2092013888889 44.5219494047619  42.4479166666667 43.7220982142857  L 45.21484375 34.2633928571429  C 45.6271701388889 32.905505952381  45.8333333333333 31.4639136904762  45.8333333333333 29.9386160714286  L 45.8333333333333 27.3995535714286  L 41.2434895833333 36.0491071428571  C 40.8745659722222 36.7559523809524  40.2994791666667 37.3232886904762  39.5182291666667 37.7511160714286  C 38.7369791666667 38.178943452381  37.890625 38.3928571428571  36.9791666666667 38.3928571428571  C 35.8289930555556 38.3928571428571  34.814453125 38.0719866071429  33.935546875 37.4302455357143  C 33.056640625 36.7885044642857  32.5303819444445 35.9840029761905  32.3567708333333 35.0167410714286  C 31.4019097222222 36.0770089285714  30.1649305555556 36.6071428571429  28.6458333333333 36.6071428571429  L 21.875 36.6071428571429  L 21.875 35.7142857142857  L 28.6458333333333 35.7142857142857  C 29.6440972222222 35.7142857142857  30.5230034722222 35.4073660714286  31.2825520833333 34.7935267857143  C 32.0421006944445 34.1796875  32.421875 33.4449404761905  32.421875 32.5892857142857  C 32.421875 31.733630952381  32.0855034722222 30.9988839285714  31.4127604166667 30.3850446428571  C 30.7400173611111 29.7712053571429  29.9045138888889 29.4642857142857  28.90625 29.4642857142857  L 19.2708333333333 29.4642857142857  C 18.2074652777778 29.4642857142857  17.3177083333333 29.7991071428571  16.6015625 30.46875  L 12.5 34.2633928571429  L 12.5 42.8571428571429  C 12.5 43.8430059523809  12.9069010416667 44.6847098214286  13.720703125 45.3822544642857  C 14.5345052083333 46.0797991071429  15.5164930555556 46.4285714285714  16.6666666666667 46  Z " fill-rule="nonzero" fill="#ffffff" stroke="none" transform="matrix(1 0 0 1 176 1695 )" />
  </g>
</svg>